<svg width="110" height="49" viewBox="0 0 110 49" fill="none" xmlns="http://www.w3.org/2000/svg">
<rect y="0.5" width="110" height="48" rx="8" fill="#2A3647"/>
<path d="M25.3274 32V16.7273H28.5565V29.3377H35.104V32H25.3274ZM42.3582 32.2237C41.1998 32.2237 40.1981 31.9776 39.3529 31.4854C38.5127 30.9883 37.8639 30.2972 37.4065 29.4123C36.9491 28.5224 36.7204 27.4908 36.7204 26.3175C36.7204 25.1342 36.9491 24.1001 37.4065 23.2152C37.8639 22.3253 38.5127 21.6342 39.3529 21.142C40.1981 20.6449 41.1998 20.3963 42.3582 20.3963C43.5166 20.3963 44.5159 20.6449 45.3561 21.142C46.2013 21.6342 46.8525 22.3253 47.3099 23.2152C47.7673 24.1001 47.996 25.1342 47.996 26.3175C47.996 27.4908 47.7673 28.5224 47.3099 29.4123C46.8525 30.2972 46.2013 30.9883 45.3561 31.4854C44.5159 31.9776 43.5166 32.2237 42.3582 32.2237ZM42.3731 29.7628C42.9001 29.7628 43.3401 29.6136 43.6931 29.3153C44.0461 29.0121 44.3121 28.5994 44.491 28.0774C44.675 27.5554 44.767 26.9613 44.767 26.2951C44.767 25.6289 44.675 25.0348 44.491 24.5128C44.3121 23.9908 44.0461 23.5781 43.6931 23.2749C43.3401 22.9716 42.9001 22.82 42.3731 22.82C41.8412 22.82 41.3937 22.9716 41.0308 23.2749C40.6729 23.5781 40.4019 23.9908 40.218 24.5128C40.039 25.0348 39.9495 25.6289 39.9495 26.2951C39.9495 26.9613 40.039 27.5554 40.218 28.0774C40.4019 28.5994 40.6729 29.0121 41.0308 29.3153C41.3937 29.6136 41.8412 29.7628 42.3731 29.7628ZM55.2222 36.5341C54.1931 36.5341 53.3106 36.3924 52.5748 36.109C51.844 35.8306 51.2623 35.4503 50.8298 34.968C50.3973 34.4858 50.1164 33.9439 49.9871 33.3423L52.9253 32.9471C53.0148 33.1758 53.1565 33.3896 53.3504 33.5884C53.5443 33.7873 53.8003 33.9464 54.1185 34.0657C54.4417 34.19 54.8344 34.2521 55.2968 34.2521C55.9878 34.2521 56.5571 34.0831 57.0045 33.745C57.4569 33.4119 57.6832 32.8526 57.6832 32.0671V29.9716H57.5489C57.4097 30.2898 57.2009 30.5906 56.9225 30.8739C56.6441 31.1573 56.2861 31.3885 55.8486 31.5675C55.4111 31.7464 54.8891 31.8359 54.2826 31.8359C53.4225 31.8359 52.6395 31.6371 51.9335 31.2393C51.2325 30.8366 50.6732 30.2227 50.2556 29.3974C49.843 28.5671 49.6366 27.5181 49.6366 26.2504C49.6366 24.9528 49.8479 23.869 50.2705 22.9989C50.6931 22.1289 51.2549 21.4776 51.9559 21.0451C52.6618 20.6126 53.4349 20.3963 54.2751 20.3963C54.9165 20.3963 55.4534 20.5057 55.8859 20.7244C56.3184 20.9382 56.6665 21.2067 56.93 21.5298C57.1984 21.848 57.4047 22.1612 57.5489 22.4695H57.6682V20.5455H60.8227V32.1119C60.8227 33.0863 60.5841 33.9016 60.1068 34.5579C59.6295 35.2141 58.9683 35.7063 58.1231 36.0344C57.2829 36.3675 56.316 36.5341 55.2222 36.5341ZM55.2893 29.4496C55.8014 29.4496 56.2339 29.3228 56.5869 29.0692C56.9449 28.8107 57.2183 28.4428 57.4072 27.9656C57.6011 27.4833 57.6981 26.9066 57.6981 26.2354C57.6981 25.5643 57.6036 24.9826 57.4147 24.4904C57.2258 23.9933 56.9523 23.608 56.5944 23.3345C56.2364 23.0611 55.8014 22.9244 55.2893 22.9244C54.7673 22.9244 54.3273 23.0661 53.9694 23.3494C53.6114 23.6278 53.3405 24.0156 53.1565 24.5128C52.9726 25.0099 52.8806 25.5842 52.8806 26.2354C52.8806 26.8967 52.9726 27.4684 53.1565 27.9506C53.3454 28.4279 53.6164 28.7983 53.9694 29.0618C54.3273 29.3203 54.7673 29.4496 55.2893 29.4496ZM68.2111 32V20.5455H71.388V32H68.2111ZM69.807 19.0689C69.3347 19.0689 68.9295 18.9123 68.5914 18.5991C68.2583 18.2809 68.0918 17.9006 68.0918 17.4581C68.0918 17.0206 68.2583 16.6452 68.5914 16.332C68.9295 16.0138 69.3347 15.8548 69.807 15.8548C70.2793 15.8548 70.682 16.0138 71.0151 16.332C71.3532 16.6452 71.5222 17.0206 71.5222 17.4581C71.5222 17.9006 71.3532 18.2809 71.0151 18.5991C70.682 18.9123 70.2793 19.0689 69.807 19.0689ZM77.1096 25.3778V32H73.9328V20.5455H76.9605V22.5664H77.0947C77.3483 21.9002 77.7733 21.3732 78.3699 20.9854C78.9665 20.5927 79.6899 20.3963 80.54 20.3963C81.3355 20.3963 82.029 20.5703 82.6207 20.9183C83.2123 21.2663 83.6721 21.7635 84.0003 22.4098C84.3284 23.0511 84.4925 23.8168 84.4925 24.7067V32H81.3156V25.2734C81.3206 24.5724 81.1416 24.0256 80.7787 23.6328C80.4157 23.2351 79.9161 23.0362 79.2797 23.0362C78.8522 23.0362 78.4743 23.1282 78.1462 23.3121C77.8231 23.4961 77.5695 23.7646 77.3856 24.1175C77.2066 24.4656 77.1146 24.8857 77.1096 25.3778Z" fill="white"/>
</svg>
