<svg width="91" height="49" viewBox="0 0 91 49" fill="none" xmlns="http://www.w3.org/2000/svg">
<rect width="91" height="49" rx="8" fill="#2A3647"/>
<path d="M23.3239 21.7102C23.2784 21.2519 23.0833 20.8958 22.7386 20.642C22.3939 20.3883 21.9261 20.2614 21.3352 20.2614C20.9337 20.2614 20.5947 20.3182 20.3182 20.4318C20.0417 20.5417 19.8295 20.6951 19.6818 20.892C19.5379 21.089 19.4659 21.3125 19.4659 21.5625C19.4583 21.7708 19.5019 21.9527 19.5966 22.108C19.6951 22.2633 19.8295 22.3977 20 22.5114C20.1705 22.6212 20.3674 22.7178 20.5909 22.8011C20.8144 22.8807 21.053 22.9489 21.3068 23.0057L22.3523 23.2557C22.8598 23.3693 23.3258 23.5208 23.75 23.7102C24.1742 23.8996 24.5417 24.1326 24.8523 24.4091C25.1629 24.6856 25.4034 25.0114 25.5739 25.3864C25.7481 25.7614 25.8371 26.1913 25.8409 26.6761C25.8371 27.3883 25.6553 28.0057 25.2955 28.5284C24.9394 29.0473 24.4242 29.4508 23.75 29.7386C23.0795 30.0227 22.2708 30.1648 21.3239 30.1648C20.3845 30.1648 19.5663 30.0208 18.8693 29.733C18.1761 29.4451 17.6345 29.0189 17.2443 28.4545C16.858 27.8864 16.6553 27.1837 16.6364 26.3466H19.017C19.0436 26.7367 19.1553 27.0625 19.3523 27.3239C19.553 27.5814 19.8201 27.7765 20.1534 27.9091C20.4905 28.0379 20.8712 28.1023 21.2955 28.1023C21.7121 28.1023 22.0739 28.0417 22.3807 27.9205C22.6913 27.7992 22.9318 27.6307 23.1023 27.4148C23.2727 27.1989 23.358 26.9508 23.358 26.6705C23.358 26.4091 23.2803 26.1894 23.125 26.0114C22.9735 25.8333 22.75 25.6818 22.4545 25.5568C22.1629 25.4318 21.8049 25.3182 21.3807 25.2159L20.1136 24.8977C19.1326 24.6591 18.358 24.286 17.7898 23.7784C17.2216 23.2708 16.9394 22.5871 16.9432 21.7273C16.9394 21.0227 17.1269 20.4072 17.5057 19.8807C17.8883 19.3542 18.4129 18.9432 19.0795 18.6477C19.7462 18.3523 20.5038 18.2045 21.3523 18.2045C22.2159 18.2045 22.9697 18.3523 23.6136 18.6477C24.2614 18.9432 24.7652 19.3542 25.125 19.8807C25.4848 20.4072 25.6705 21.017 25.6818 21.7102H23.3239ZM27.4503 30V21.2727H29.8707V30H27.4503ZM28.6662 20.1477C28.3063 20.1477 27.9976 20.0284 27.7401 19.7898C27.4863 19.5473 27.3594 19.2576 27.3594 18.9205C27.3594 18.5871 27.4863 18.3011 27.7401 18.0625C27.9976 17.8201 28.3063 17.6989 28.6662 17.6989C29.026 17.6989 29.3329 17.8201 29.5866 18.0625C29.8442 18.3011 29.973 18.5871 29.973 18.9205C29.973 19.2576 29.8442 19.5473 29.5866 19.7898C29.3329 20.0284 29.026 20.1477 28.6662 20.1477ZM35.7415 33.4545C34.9574 33.4545 34.285 33.3466 33.7244 33.1307C33.1676 32.9186 32.7244 32.6288 32.3949 32.2614C32.0653 31.8939 31.8513 31.4811 31.7528 31.0227L33.9915 30.7216C34.0597 30.8958 34.1676 31.0587 34.3153 31.2102C34.4631 31.3617 34.6581 31.483 34.9006 31.5739C35.1468 31.6686 35.446 31.7159 35.7983 31.7159C36.3248 31.7159 36.7585 31.5871 37.0994 31.3295C37.4441 31.0758 37.6165 30.6496 37.6165 30.0511V28.4545H37.5142C37.4081 28.697 37.2491 28.9261 37.0369 29.142C36.8248 29.358 36.5521 29.5341 36.2188 29.6705C35.8854 29.8068 35.4877 29.875 35.0256 29.875C34.3703 29.875 33.7737 29.7235 33.2358 29.4205C32.7017 29.1136 32.2756 28.6458 31.9574 28.017C31.643 27.3845 31.4858 26.5852 31.4858 25.6193C31.4858 24.6307 31.6468 23.8049 31.9688 23.142C32.2907 22.4792 32.7188 21.983 33.2528 21.6534C33.7907 21.3239 34.3797 21.1591 35.0199 21.1591C35.5085 21.1591 35.9176 21.2424 36.2472 21.4091C36.5767 21.572 36.8419 21.7765 37.0426 22.0227C37.2472 22.2652 37.4044 22.5038 37.5142 22.7386H37.6051V21.2727H40.0085V30.0852C40.0085 30.8277 39.8267 31.4489 39.4631 31.9489C39.0994 32.4489 38.5956 32.8239 37.9517 33.0739C37.3116 33.3277 36.5748 33.4545 35.7415 33.4545ZM35.7926 28.0568C36.1828 28.0568 36.5123 27.9602 36.7812 27.767C37.054 27.5701 37.2623 27.2898 37.4062 26.9261C37.554 26.5587 37.6278 26.1193 37.6278 25.608C37.6278 25.0966 37.5559 24.6534 37.4119 24.2784C37.268 23.8996 37.0597 23.6061 36.7869 23.3977C36.5142 23.1894 36.1828 23.0852 35.7926 23.0852C35.3949 23.0852 35.0597 23.1932 34.7869 23.4091C34.5142 23.6212 34.3078 23.9167 34.1676 24.2955C34.0275 24.6742 33.9574 25.1117 33.9574 25.608C33.9574 26.1117 34.0275 26.5473 34.1676 26.9148C34.3116 27.2784 34.518 27.5606 34.7869 27.7614C35.0597 27.9583 35.3949 28.0568 35.7926 28.0568ZM44.3551 24.9545V30H41.9347V21.2727H44.2415V22.8125H44.3438C44.5369 22.3049 44.8608 21.9034 45.3153 21.608C45.7699 21.3087 46.321 21.1591 46.9688 21.1591C47.5748 21.1591 48.1032 21.2917 48.554 21.5568C49.0047 21.822 49.3551 22.2008 49.6051 22.6932C49.8551 23.1818 49.9801 23.7652 49.9801 24.4432V30H47.5597V24.875C47.5634 24.3409 47.4271 23.9242 47.1506 23.625C46.8741 23.322 46.4934 23.1705 46.0085 23.1705C45.6828 23.1705 45.3949 23.2405 45.1449 23.3807C44.8987 23.5208 44.7055 23.7254 44.5653 23.9943C44.429 24.2595 44.3589 24.5795 44.3551 24.9545ZM61.1875 26.2841V21.2727H63.608V30H61.2841V28.4148H61.1932C60.9962 28.9261 60.6686 29.3371 60.2102 29.6477C59.7557 29.9583 59.2008 30.1136 58.5455 30.1136C57.9621 30.1136 57.4489 29.9811 57.0057 29.7159C56.5625 29.4508 56.2159 29.0739 55.9659 28.5852C55.7197 28.0966 55.5947 27.5114 55.5909 26.8295V21.2727H58.0114V26.3977C58.0152 26.9129 58.1534 27.3201 58.4261 27.6193C58.6989 27.9186 59.0644 28.0682 59.5227 28.0682C59.8144 28.0682 60.0871 28.0019 60.3409 27.8693C60.5947 27.733 60.7992 27.5322 60.9545 27.267C61.1136 27.0019 61.1913 26.6742 61.1875 26.2841ZM65.544 33.2727V21.2727H67.9304V22.7386H68.0384C68.1444 22.5038 68.2978 22.2652 68.4986 22.0227C68.7031 21.7765 68.9683 21.572 69.294 21.4091C69.6236 21.2424 70.0327 21.1591 70.5213 21.1591C71.1577 21.1591 71.7448 21.3258 72.2827 21.6591C72.8205 21.9886 73.2505 22.4867 73.5724 23.1534C73.8944 23.8163 74.0554 24.6477 74.0554 25.6477C74.0554 26.6212 73.8982 27.4432 73.5838 28.1136C73.2732 28.7803 72.849 29.286 72.3111 29.6307C71.777 29.9716 71.1785 30.142 70.5156 30.142C70.0459 30.142 69.6463 30.0644 69.3168 29.9091C68.991 29.7538 68.724 29.5587 68.5156 29.3239C68.3073 29.0852 68.1482 28.8447 68.0384 28.6023H67.9645V33.2727H65.544ZM67.9134 25.6364C67.9134 26.1553 67.9853 26.608 68.1293 26.9943C68.2732 27.3807 68.4815 27.6818 68.7543 27.8977C69.027 28.1098 69.3584 28.2159 69.7486 28.2159C70.1425 28.2159 70.4759 28.108 70.7486 27.892C71.0213 27.6723 71.2277 27.3693 71.3679 26.983C71.5118 26.5928 71.5838 26.1439 71.5838 25.6364C71.5838 25.1326 71.5137 24.6894 71.3736 24.3068C71.2334 23.9242 71.027 23.625 70.7543 23.4091C70.4815 23.1932 70.1463 23.0852 69.7486 23.0852C69.3546 23.0852 69.0213 23.1894 68.7486 23.3977C68.4796 23.6061 68.2732 23.9015 68.1293 24.2841C67.9853 24.6667 67.9134 25.1174 67.9134 25.6364Z" fill="white"/>
</svg>
