<svg width="173" height="61" viewBox="0 0 173 61" fill="none" xmlns="http://www.w3.org/2000/svg">
<path d="M0.202504 47.5V3.13636H9.58212V39.7667H28.6013V47.5H0.202504ZM49.6729 48.1499C46.3081 48.1499 43.3982 47.435 40.9432 46.0053C38.5026 44.5612 36.618 42.5539 35.2894 39.9833C33.9608 37.3983 33.2965 34.4018 33.2965 30.9936C33.2965 27.5566 33.9608 24.5528 35.2894 21.9822C36.618 19.3973 38.5026 17.3899 40.9432 15.9602C43.3982 14.5161 46.3081 13.794 49.6729 13.794C53.0378 13.794 55.9405 14.5161 58.381 15.9602C60.8361 17.3899 62.7279 19.3973 64.0565 21.9822C65.3851 24.5528 66.0494 27.5566 66.0494 30.9936C66.0494 34.4018 65.3851 37.3983 64.0565 39.9833C62.7279 42.5539 60.8361 44.5612 58.381 46.0053C55.9405 47.435 53.0378 48.1499 49.6729 48.1499ZM49.7163 41.0014C51.247 41.0014 52.5251 40.5682 53.5504 39.7017C54.5758 38.8208 55.3484 37.6222 55.8683 36.1058C56.4026 34.5895 56.6697 32.8638 56.6697 30.9286C56.6697 28.9935 56.4026 27.2678 55.8683 25.7514C55.3484 24.2351 54.5758 23.0365 53.5504 22.1555C52.5251 21.2746 51.247 20.8342 49.7163 20.8342C48.171 20.8342 46.8713 21.2746 45.8171 22.1555C44.7773 23.0365 43.9903 24.2351 43.456 25.7514C42.9361 27.2678 42.6761 28.9935 42.6761 30.9286C42.6761 32.8638 42.9361 34.5895 43.456 36.1058C43.9903 37.6222 44.7773 38.8208 45.8171 39.7017C46.8713 40.5682 48.171 41.0014 49.7163 41.0014ZM87.0398 60.6705C84.0504 60.6705 81.4871 60.2589 79.3498 59.4357C77.2269 58.627 75.5373 57.5223 74.2809 56.1214C73.0245 54.7206 72.2086 53.1465 71.8331 51.3991L80.3679 50.2511C80.6278 50.9154 81.0394 51.5363 81.6026 52.114C82.1658 52.6916 82.9096 53.1538 83.8338 53.5004C84.7725 53.8614 85.9134 54.0419 87.2564 54.0419C89.2637 54.0419 90.9173 53.5509 92.217 52.5689C93.5311 51.6013 94.1882 49.9767 94.1882 47.695V41.608H93.7983C93.3939 42.5322 92.7874 43.4059 91.9787 44.229C91.17 45.0522 90.1302 45.7237 88.8594 46.2436C87.5885 46.7635 86.0722 47.0234 84.3104 47.0234C81.812 47.0234 79.5375 46.4458 77.4869 45.2905C75.4506 44.1207 73.826 42.3372 72.6129 39.94C71.4143 37.5283 70.815 34.4812 70.815 30.7986C70.815 27.0295 71.4287 23.8813 72.6562 21.354C73.8838 18.8268 75.5156 16.935 77.5518 15.6786C79.6025 14.4222 81.8481 13.794 84.2887 13.794C86.1516 13.794 87.7113 14.1117 88.9677 14.7472C90.2241 15.3681 91.235 16.148 92.0004 17.0866C92.7802 18.0109 93.3795 18.9207 93.7983 19.816H94.1449V14.2273H103.308V47.8249C103.308 50.6554 102.615 53.0238 101.228 54.93C99.842 56.8363 97.9213 58.266 95.4663 59.2191C93.0257 60.1867 90.2169 60.6705 87.0398 60.6705ZM87.2347 40.0916C88.7222 40.0916 89.9786 39.7234 91.0039 38.9869C92.0437 38.2359 92.838 37.1673 93.3867 35.7809C93.9499 34.3801 94.2315 32.7049 94.2315 30.7553C94.2315 28.8058 93.9572 27.1161 93.4084 25.6864C92.8596 24.2423 92.0653 23.1231 91.0256 22.3288C89.9858 21.5346 88.7222 21.1374 87.2347 21.1374C85.7184 21.1374 84.4403 21.549 83.4006 22.3722C82.3608 23.1809 81.5737 24.3073 81.0394 25.7514C80.5051 27.1955 80.2379 28.8635 80.2379 30.7553C80.2379 32.676 80.5051 34.3368 81.0394 35.7376C81.5882 37.1239 82.3752 38.1998 83.4006 38.9652C84.4403 39.7161 85.7184 40.0916 87.2347 40.0916ZM124.769 47.5V14.2273H133.997V47.5H124.769ZM129.405 9.93821C128.033 9.93821 126.856 9.48331 125.874 8.57351C124.907 7.64926 124.423 6.54451 124.423 5.25923C124.423 3.9884 124.907 2.89808 125.874 1.98828C126.856 1.06404 128.033 0.601915 129.405 0.601915C130.777 0.601915 131.947 1.06404 132.914 1.98828C133.896 2.89808 134.387 3.9884 134.387 5.25923C134.387 6.54451 133.896 7.64926 132.914 8.57351C131.947 9.48331 130.777 9.93821 129.405 9.93821ZM150.618 28.2642V47.5H141.39V14.2273H150.184V20.0977H150.574C151.311 18.1625 152.545 16.6317 154.278 15.5053C156.011 14.3645 158.113 13.794 160.582 13.794C162.893 13.794 164.907 14.2995 166.626 15.3104C168.344 16.3213 169.68 17.7654 170.633 19.6428C171.586 21.5057 172.063 23.7296 172.063 26.3146V47.5H162.835V27.9609C162.849 25.9247 162.329 24.3362 161.275 23.1953C160.221 22.04 158.77 21.4624 156.921 21.4624C155.679 21.4624 154.582 21.7295 153.629 22.2638C152.69 22.7982 151.953 23.578 151.419 24.6033C150.899 25.6142 150.632 26.8345 150.618 28.2642Z" fill="black"/>
</svg>
