<svg width="19" height="19" viewBox="0 0 19 19" fill="none" xmlns="http://www.w3.org/2000/svg">
<path d="M17.45 18.5C15.3667 18.5 13.3083 18.0458 11.275 17.1375C9.24167 16.2292 7.39167 14.9417 5.725 13.275C4.05833 11.6083 2.77083 9.75833 1.8625 7.725C0.954167 5.69167 0.5 3.63333 0.5 1.55C0.5 1.25 0.6 1 0.8 0.8C1 0.6 1.25 0.5 1.55 0.5H5.6C5.83333 0.5 6.04167 0.579167 6.225 0.7375C6.40833 0.895833 6.51667 1.08333 6.55 1.3L7.2 4.8C7.23333 5.06667 7.225 5.29167 7.175 5.475C7.125 5.65833 7.03333 5.81667 6.9 5.95L4.475 8.4C4.80833 9.01667 5.20417 9.6125 5.6625 10.1875C6.12083 10.7625 6.625 11.3167 7.175 11.85C7.69167 12.3667 8.23333 12.8458 8.8 13.2875C9.36667 13.7292 9.96667 14.1333 10.6 14.5L12.95 12.15C13.1 12 13.2958 11.8875 13.5375 11.8125C13.7792 11.7375 14.0167 11.7167 14.25 11.75L17.7 12.45C17.9333 12.5167 18.125 12.6375 18.275 12.8125C18.425 12.9875 18.5 13.1833 18.5 13.4V17.45C18.5 17.75 18.4 18 18.2 18.2C18 18.4 17.75 18.5 17.45 18.5ZM3.525 6.5L5.175 4.85L4.75 2.5H2.525C2.60833 3.18333 2.725 3.85833 2.875 4.525C3.025 5.19167 3.24167 5.85 3.525 6.5ZM12.475 15.45C13.125 15.7333 13.7875 15.9583 14.4625 16.125C15.1375 16.2917 15.8167 16.4 16.5 16.45V14.25L14.15 13.775L12.475 15.45Z" fill="#A8A8A8"/>
</svg>
