<svg width="26" height="26" viewBox="0 0 26 26" fill="none" xmlns="http://www.w3.org/2000/svg">
<path d="M2.62652 25.1682C1.95579 25.1682 1.38161 24.9294 0.903963 24.4517C0.426321 23.9741 0.1875 23.3999 0.1875 22.7292V5.65599C0.1875 4.98526 0.426321 4.41107 0.903963 3.93343C1.38161 3.45578 1.95579 3.21696 2.62652 3.21696H13.5107L11.0716 5.65599H2.62652V22.7292H19.6997V14.2535L22.1387 11.8145V22.7292C22.1387 23.3999 21.8999 23.9741 21.4223 24.4517C20.9446 24.9294 20.3704 25.1682 19.6997 25.1682H2.62652ZM16.2546 3.91818L17.9924 5.6255L9.9436 13.6743V15.4121H11.6509L19.7302 7.33282L21.468 9.04013L13.3887 17.1194C13.1651 17.343 12.906 17.5208 12.6113 17.6529C12.3166 17.7851 12.0066 17.8511 11.6814 17.8511H8.72409C8.37856 17.8511 8.08892 17.7342 7.85518 17.5005C7.62144 17.2668 7.50457 16.9771 7.50457 16.6316V13.6743C7.50457 13.3491 7.56555 13.0391 7.6875 12.7444C7.80945 12.4497 7.98222 12.1905 8.20579 11.967L16.2546 3.91818ZM21.468 9.04013L16.2546 3.91818L19.3034 0.869403C19.7912 0.381598 20.3755 0.137695 21.0564 0.137695C21.7373 0.137695 22.3115 0.381598 22.779 0.869403L24.4863 2.60721C24.9538 3.07469 25.1875 3.64379 25.1875 4.31452C25.1875 4.98526 24.9538 5.55436 24.4863 6.02184L21.468 9.04013Z" fill="#CDCDCD"/>
</svg>
