<svg width="30" height="26" viewBox="0 0 30 26" fill="none" xmlns="http://www.w3.org/2000/svg">
<path d="M22.9546 2.73855L22.9546 23.1929C22.954 23.7955 22.7143 24.3732 22.2882 24.7993C21.8622 25.2253 21.2844 25.465 20.6819 25.4656L16.1365 25.4656C15.5339 25.465 14.9562 25.2253 14.5301 24.7993C14.104 24.3732 13.8644 23.7955 13.8638 23.1929L13.8638 2.73855C13.8644 2.13597 14.104 1.55825 14.5301 1.13217C14.9562 0.706083 15.5339 0.466443 16.1365 0.465841L20.6819 0.46584C21.2844 0.466443 21.8622 0.706082 22.2882 1.13217C22.7143 1.55825 22.954 2.13597 22.9546 2.73855ZM16.1365 23.1929L20.6819 23.1929L20.6819 2.73855L16.1365 2.73855L16.1365 23.1929ZM16.1365 2.73855L16.1365 23.1929C16.1359 23.7955 15.8962 24.3731 15.4701 24.7992C15.0441 25.2253 14.4663 25.4649 13.8638 25.4655L9.31835 25.4655C8.71578 25.4649 8.13806 25.2253 7.71197 24.7992C7.28589 24.3731 7.04625 23.7954 7.04565 23.1928L7.04565 2.73852C7.04625 2.13595 7.28589 1.55823 7.71197 1.13214C8.13806 0.706058 8.71578 0.466423 9.31835 0.46582L13.8638 0.46582C14.4663 0.466422 15.0441 0.706058 15.4701 1.13214C15.8962 1.55823 16.1359 2.13597 16.1365 2.73855ZM9.31835 23.1928L13.8638 23.1929L13.8638 2.73855L9.31835 2.73852L9.31835 23.1928ZM9.31835 2.73852L9.31835 23.1928C9.31775 23.7954 9.07811 24.3731 8.65203 24.7992C8.22594 25.2253 7.64822 25.4649 7.04565 25.4656L2.50024 25.4656C1.89767 25.4649 1.31995 25.2253 0.893863 24.7992C0.467779 24.3731 0.228141 23.7954 0.227539 23.1928L0.227538 2.73852C0.22814 2.13595 0.467778 1.55823 0.893862 1.13214C1.31995 0.706058 1.89767 0.466423 2.50024 0.46582L7.04565 0.46582C7.64822 0.466423 8.22594 0.706058 8.65203 1.13214C9.07811 1.55823 9.31775 2.13595 9.31835 2.73852ZM2.50024 23.1928L7.04565 23.1928L7.04565 2.73852L2.50024 2.73852L2.50024 23.1928Z" fill="#CDCDCD"/>
<path d="M29.7727 2.7388L29.7727 23.1931C29.7721 23.7957 29.5324 24.3734 29.1064 24.7995C28.6803 25.2256 28.1026 25.4652 27.5 25.4658L22.9546 25.4658C22.352 25.4652 21.7743 25.2256 21.3482 24.7995C20.9221 24.3734 20.6825 23.7955 20.6819 23.1929L20.6819 2.73855C20.6825 2.13597 20.9221 1.5585 21.3482 1.13242C21.7743 0.706334 22.352 0.466697 22.9546 0.466094L27.5 0.466094C28.1026 0.466696 28.6803 0.706334 29.1064 1.13242C29.5324 1.5585 29.7721 2.13622 29.7727 2.7388ZM22.9546 23.1929L27.5 23.1931L27.5 2.7388L22.9546 2.73855L22.9546 23.1929Z" fill="#CDCDCD"/>
</svg>
