<svg width="26" height="26" viewBox="0 0 26 26" fill="none" xmlns="http://www.w3.org/2000/svg">
<path d="M23.2273 0.46582H2.77273H2.5C1.39543 0.46582 0.5 1.36155 0.5 2.46612C0.5 2.64591 0.5 2.77328 0.5 2.80579V23.2603V23.4658C0.5 24.5704 1.39572 25.4658 2.50029 25.4658C2.64377 25.4658 2.74401 25.4658 2.77272 25.4658H23.2273C23.256 25.4658 23.3562 25.4658 23.4997 25.4658C24.6043 25.4658 25.5 24.5699 25.5 23.4653C25.5 23.3585 25.5 23.2846 25.5 23.2603V2.80576C25.5 2.77326 25.5 2.6459 25.5 2.46612C25.5 1.36155 24.6043 0.46582 23.4997 0.46582C23.3562 0.46582 23.256 0.46582 23.2273 0.46582ZM15.2727 23.2603H2.77273V14.1694H15.2727V23.2603ZM15.2727 11.8967H2.77273V2.80579L15.2727 2.80576V11.8967ZM23.2273 23.2603H17.5455V2.80579H23.2273V23.2603Z" fill="#CDCDCD"/>
</svg>
