<svg width="25" height="24" viewBox="0 0 25 24" fill="none" xmlns="http://www.w3.org/2000/svg">
<mask id="mask0_75592_13822" style="mask-type:alpha" maskUnits="userSpaceOnUse" x="0" y="0" width="25" height="24">
<rect x="0.855469" width="24" height="24" fill="#D9D9D9"/>
</mask>
<g mask="url(#mask0_75592_13822)">
<path d="M15.3555 18C14.6555 18 14.0638 17.7583 13.5805 17.275C13.0971 16.7917 12.8555 16.2 12.8555 15.5C12.8555 14.8 13.0971 14.2083 13.5805 13.725C14.0638 13.2417 14.6555 13 15.3555 13C16.0555 13 16.6471 13.2417 17.1305 13.725C17.6138 14.2083 17.8555 14.8 17.8555 15.5C17.8555 16.2 17.6138 16.7917 17.1305 17.275C16.6471 17.7583 16.0555 18 15.3555 18ZM5.85547 22C5.30547 22 4.83464 21.8042 4.44297 21.4125C4.0513 21.0208 3.85547 20.55 3.85547 20V6C3.85547 5.45 4.0513 4.97917 4.44297 4.5875C4.83464 4.19583 5.30547 4 5.85547 4H6.85547V3C6.85547 2.71667 6.9513 2.47917 7.14297 2.2875C7.33464 2.09583 7.57214 2 7.85547 2C8.1388 2 8.3763 2.09583 8.56797 2.2875C8.75964 2.47917 8.85547 2.71667 8.85547 3V4H16.8555V3C16.8555 2.71667 16.9513 2.47917 17.143 2.2875C17.3346 2.09583 17.5721 2 17.8555 2C18.1388 2 18.3763 2.09583 18.568 2.2875C18.7596 2.47917 18.8555 2.71667 18.8555 3V4H19.8555C20.4055 4 20.8763 4.19583 21.268 4.5875C21.6596 4.97917 21.8555 5.45 21.8555 6V20C21.8555 20.55 21.6596 21.0208 21.268 21.4125C20.8763 21.8042 20.4055 22 19.8555 22H5.85547ZM5.85547 20H19.8555V10H5.85547V20ZM5.85547 8H19.8555V6H5.85547V8Z" fill="#2A3647"/>
</g>
</svg>
